<?xml version="1.0" encoding="iso-8859-1"?>
<!-- Generator: Adobe Illustrator 16.0.0, SVG Export Plug-In . SVG Version: 6.00 Build 0)  -->
<!DOCTYPE svg PUBLIC "-//W3C//DTD SVG 1.1//EN" "http://www.w3.org/Graphics/SVG/1.1/DTD/svg11.dtd">
<svg version="1.1" id="Capa_1" xmlns="http://www.w3.org/2000/svg" xmlns:xlink="http://www.w3.org/1999/xlink" x="0px" y="0px"
	 width="508.961px" height="508.96px" viewBox="0 0 508.961 508.96" style="enable-background:new 0 0 508.961 508.96;"
	 xml:space="preserve">
<g>
	<g>
		<path d="M401.924,176.617V76.424C401.924,34.282,367.638,0,325.496,0H183.479c-42.142,0-76.424,34.282-76.424,76.424v100.187
			c0,9.122,1.71,18.093,4.941,26.712c-32.088,35.423-49.768,81.145-49.768,128.98c0,76.652,45.468,145.9,115.826,176.423
			c0.354,0.149,0.742,0.234,1.117,0.234h150.616c0.372,0,0.766-0.076,1.116-0.234c70.358-30.522,115.831-99.771,115.831-176.423
			c0-47.836-17.686-93.558-49.773-128.98C400.211,194.715,401.924,185.744,401.924,176.617z M112.663,76.424
			c0-39.052,31.765-70.821,70.822-70.821h142.011c39.056,0,70.824,31.77,70.824,70.821v100.187c0,7.524-1.204,14.95-3.595,22.122
			c-0.868-0.907-1.801-1.766-2.698-2.655c-0.952-0.947-1.892-1.893-2.867-2.818c-1.598-1.533-3.24-3.01-4.893-4.479
			c-0.94-0.834-1.859-1.686-2.826-2.498c-1.759-1.508-3.581-2.96-5.387-4.399c-0.92-0.728-1.812-1.478-2.731-2.192
			c-1.869-1.428-3.792-2.777-5.693-4.134c-3.066-2.169-6.186-4.251-9.357-6.243c-0.406-0.258-0.812-0.531-1.217-0.783
			c-2.504-1.549-5.057-3.004-7.626-4.433c-0.252-0.134-0.494-0.282-0.746-0.421c-2.723-1.502-5.5-2.919-8.301-4.285
			c-0.038-0.019-0.082-0.035-0.113-0.052c-1.299-0.632-2.583-1.31-3.898-1.915c11.842-3.784,20.512-14.772,20.512-27.862V76.424
			c0-16.2-13.189-29.379-29.375-29.379H183.479c-16.205,0-29.367,13.18-29.367,29.379v53.141c0,13.089,8.662,24.078,20.509,27.862
			c-1.289,0.593-2.551,1.258-3.845,1.887c-0.096,0.044-0.196,0.096-0.292,0.145c-2.746,1.341-5.461,2.728-8.141,4.197
			c-0.341,0.186-0.661,0.38-0.992,0.561c-2.482,1.384-4.958,2.791-7.375,4.282c-0.668,0.408-1.299,0.851-1.966,1.265
			c-2.685,1.688-5.306,3.425-7.893,5.244c-2.197,1.535-4.368,3.09-6.497,4.72c-0.839,0.649-1.658,1.338-2.487,2
			c-1.9,1.502-3.784,3.007-5.628,4.583c-0.93,0.796-1.819,1.62-2.727,2.433c-1.674,1.485-3.341,2.979-4.952,4.522
			c-0.988,0.936-1.94,1.894-2.904,2.846c-0.887,0.881-1.805,1.726-2.678,2.626c-2.393-7.177-3.598-14.588-3.598-22.121
			L112.663,76.424L112.663,76.424z M245.484,140.269c-0.18,0.011-0.353,0.028-0.544,0.039c-0.418,0.022-0.84,0.06-1.267,0.09
			c-0.391,0.022-0.806,0.055-1.203,0.085c-1.985,0.115-3.974,0.227-5.951,0.413c-0.448,0.038-0.885,0.106-1.333,0.15
			c-0.147,0.016-0.292,0.035-0.437,0.052c-0.539,0.055-1.071,0.128-1.615,0.189c-1.832,0.203-3.658,0.389-5.486,0.64
			c-1.219,0.167-2.432,0.403-3.635,0.594c-1.727,0.274-3.458,0.525-5.171,0.846c-1.155,0.219-2.292,0.492-3.441,0.728
			c-1.755,0.366-3.53,0.706-5.267,1.126c-1.16,0.274-2.309,0.61-3.471,0.909c-1.723,0.443-3.444,0.862-5.153,1.349
			c-1.237,0.353-2.455,0.769-3.674,1.149c-1.615,0.501-3.24,0.977-4.848,1.519c-1.257,0.427-2.494,0.913-3.75,1.362
			c-1.506,0.542-3.026,1.059-4.527,1.647c-0.661,0.107-1.114,0.18-1.232,0.197c-13.113,0-23.765-10.666-23.765-23.77V76.424
			c0-13.108,10.651-23.777,23.765-23.777h142.018c13.105,0,23.76,10.664,23.76,23.777v53.141c0,13.078-10.622,23.725-23.683,23.771
			c-0.241-0.024-0.69-0.096-1.303-0.197c-1.587-0.624-3.193-1.165-4.788-1.743c-1.16-0.416-2.309-0.867-3.47-1.261
			c-1.809-0.615-3.647-1.16-5.478-1.712c-1.018-0.31-2.019-0.657-3.04-0.95c-1.999-0.577-4.04-1.081-6.052-1.59
			c-0.859-0.219-1.709-0.465-2.562-0.667c-2.063-0.486-4.132-0.903-6.211-1.321c-0.836-0.17-1.675-0.375-2.512-0.533
			c-2.012-0.38-4.053-0.685-6.102-1.001c-0.902-0.142-1.798-0.321-2.709-0.443c-2.09-0.293-4.202-0.512-6.303-0.733
			c-0.274-0.03-0.523-0.069-0.794-0.091c-0.159-0.019-0.307-0.041-0.471-0.058c-0.431-0.043-0.87-0.112-1.308-0.15
			c-2.156-0.203-4.315-0.32-6.457-0.448c-0.229-0.011-0.459-0.033-0.679-0.044c-0.425-0.025-0.854-0.068-1.28-0.091
			c-0.186-0.01-0.354-0.027-0.545-0.038c-2.989-0.142-5.992-0.208-9.005-0.208C251.479,140.061,248.478,140.126,245.484,140.269z
			 M329.206,503.363H179.764c-68.02-29.749-111.933-96.83-111.933-171.05c0-46.992,17.544-91.896,49.399-126.465
			c2.309-2.504,4.695-4.941,7.133-7.311c0.684-0.667,1.406-1.289,2.101-1.945c1.784-1.674,3.581-3.338,5.421-4.947
			c0.936-0.812,1.903-1.587,2.85-2.377c1.621-1.354,3.25-2.706,4.915-4.006c1.207-0.941,2.437-1.844,3.666-2.75
			c1.407-1.051,2.818-2.085,4.258-3.089c1.529-1.076,3.1-2.113,4.667-3.138c1.095-0.717,2.197-1.434,3.305-2.129
			c1.94-1.209,3.885-2.386,5.87-3.523c0.684-0.394,1.371-0.786,2.059-1.171c2.389-1.335,4.786-2.629,7.235-3.855
			c0.168-0.09,0.352-0.175,0.527-0.266c17.056-8.498,35.374-14.405,54.302-17.398h0.005c2.941-0.465,5.929-0.846,8.908-1.171
			c0.308-0.033,0.612-0.077,0.925-0.107c2.684-0.279,5.397-0.476,8.11-0.638c0.519-0.027,1.037-0.084,1.545-0.107
			c3.149-0.161,6.282-0.246,9.447-0.246s6.297,0.09,9.436,0.246c0.526,0.028,1.04,0.08,1.555,0.107
			c2.708,0.162,5.417,0.359,8.109,0.638c0.309,0.036,0.607,0.074,0.919,0.107c2.984,0.325,5.954,0.706,8.909,1.171l0,0
			c18.986,3.004,37.354,8.922,54.457,17.466c0.098,0.049,0.186,0.096,0.284,0.14c2.518,1.261,5.001,2.599,7.453,3.973
			c0.602,0.341,1.204,0.678,1.806,1.025c2.046,1.182,4.082,2.411,6.095,3.664c1.03,0.646,2.036,1.302,3.043,1.962
			c1.663,1.081,3.306,2.175,4.914,3.308c1.347,0.941,2.684,1.915,3.995,2.889c1.302,0.971,2.628,1.935,3.907,2.936
			c1.575,1.234,3.119,2.517,4.65,3.794c1.042,0.856,2.068,1.697,3.087,2.578c1.761,1.541,3.479,3.138,5.197,4.741
			c0.767,0.717,1.546,1.401,2.301,2.134c2.438,2.369,4.813,4.796,7.122,7.294c31.87,34.555,49.398,79.473,49.398,126.465
			C441.136,406.533,397.23,473.614,329.206,503.363z"/>
		<path d="M254.489,300.806c-38.78,0-70.327,31.54-70.327,70.315c0,38.774,31.546,70.337,70.327,70.337
			c38.778,0,70.317-31.562,70.317-70.337C324.807,332.346,293.268,300.806,254.489,300.806z M254.489,435.838
			c-35.682,0-64.722-29.029-64.722-64.717c0-35.689,29.04-64.723,64.722-64.723c35.68,0,64.716,29.033,64.716,64.723
			C319.205,406.809,290.169,435.838,254.489,435.838z"/>
		<path d="M277.726,341.189c-10.296,0-18.659,8.367-18.659,18.648v22.566c0,10.282,8.363,18.656,18.659,18.656
			c10.289,0,18.648-8.374,18.648-18.656v-22.566C296.382,349.55,288.015,341.189,277.726,341.189z M290.776,382.404
			c0,7.19-5.855,13.054-13.043,13.054c-7.203,0-13.059-5.863-13.059-13.054v-22.566c0-7.19,5.855-13.045,13.059-13.045
			c7.188,0,13.043,5.854,13.043,13.045V382.404z"/>
		<path d="M252.216,375.729h-8.057v-31.738c0-1.537-1.268-2.802-2.802-2.802c-0.92,0-1.705,0.461-2.213,1.149l-0.042-0.033
			l-25.942,34.546l0.038,0.027c-0.352,0.472-0.598,1.028-0.598,1.652c0,1.548,1.266,2.802,2.802,2.802h23.154v16.931
			c0,1.542,1.253,2.801,2.802,2.801c1.534,0,2.802-1.259,2.802-2.801v-16.931h8.057c1.545,0,2.803-1.254,2.803-2.802
			C255.019,376.987,253.761,375.729,252.216,375.729z M220.998,375.729l17.532-23.344v23.344H220.998z"/>
	</g>
</g>
<g>
</g>
<g>
</g>
<g>
</g>
<g>
</g>
<g>
</g>
<g>
</g>
<g>
</g>
<g>
</g>
<g>
</g>
<g>
</g>
<g>
</g>
<g>
</g>
<g>
</g>
<g>
</g>
<g>
</g>
</svg>
