<?xml version="1.0" encoding="iso-8859-1"?>
<!-- Generator: Adobe Illustrator 18.0.0, SVG Export Plug-In . SVG Version: 6.00 Build 0)  -->
<!DOCTYPE svg PUBLIC "-//W3C//DTD SVG 1.1//EN" "http://www.w3.org/Graphics/SVG/1.1/DTD/svg11.dtd">
<svg version="1.1" id="Capa_1" xmlns="http://www.w3.org/2000/svg" xmlns:xlink="http://www.w3.org/1999/xlink" x="0px" y="0px"
	 viewBox="0 0 251.057 251.057" style="enable-background:new 0 0 251.057 251.057;" xml:space="preserve">
<g>
	<path style="fill:#1D1D1B;" d="M213.101,120.383c-0.408,0.136-0.674,0.44-0.826,0.793c-0.469,0.048-0.955,0.065-1.445,0.076
		c-0.376-2.56-0.852-5.113-1.431-7.65c2.454-0.037,4.907-0.085,7.357-0.162c0.302,0.405,0.92,0.626,1.348,0.2
		c0.149-0.148,0.278-0.338,0.42-0.5c0.095-0.078,0.159-0.155,0.216-0.257c2.791-3.399,4.154-9.36,0.66-12.702
		c-0.48-0.458-1.123-0.381-1.569-0.043c-0.16-0.086-0.343-0.146-0.566-0.154c-3.452-0.114-6.909-0.147-10.363-0.225
		c-3.15-11.094-13.133-14.787-23.742-17.65c-14.765-3.985-30.071-6.322-45.405-7.263c1.609-7.328-2.904-18.105-11.721-17.479
		c-7.438,0.528-12.085,10.171-11.699,17.078c-2.909,0.066-6.525,0.179-10.602,0.384c-0.05-12.131,6.342-24.593,19.675-26.202
		c6.696-0.809,13.03,1.452,17.283,6.873c4.175,5.321,3.704,11.809,4.762,18.135c0.278,1.662,2.776,1.175,2.835-0.383
		c0.573-15.229-7.794-30.675-25.365-28.213c-14.966,2.097-23.044,15.953-21.694,29.927c-25.07,1.44-64.262,6.428-64.87,24.396
		c-1.929,0.083-3.861,0.144-5.787,0.252c-0.154,0.009-0.243,0.091-0.346,0.158c-0.908-1.039-2.546-1.03-3.806-0.464
		c-1.879,0.845-2.787,2.821-2.996,4.778c-0.427,3.999,0.829,9.826,5.903,9.48c0.098-0.006,0.142-0.074,0.221-0.104
		c1.752-0.103,3.501-0.187,5.252-0.29c-1.329,11.405-1.009,23.4,1.507,34.796c-5.706,0.943-10.501,2.699-16.449,1.499
		c-5.303-1.07-11.016-3.72-14.178-8.255c-5.034-7.221,0.945-14.884,8.201-16.91c3.984-1.112,15.689-1.932,18.479,1.518
		c0.702,0.868,1.835-0.108,1.686-0.981c-1.069-6.243-16.729-5.126-21.107-3.954c-6.612,1.77-12.823,7.479-12.937,14.727
		c-0.244,15.585,25.65,22.419,36.914,14.994c2.984,11.766,8.417,22.778,17.014,31.668c18.734,19.372,46.883,23.701,72.607,23.991
		c26.526,0.299,51.269-2.77,69.245-24.261c7.445-8.902,12.044-19.057,14.34-29.742c7.355,4.145,16.125,4.875,24.227,2.417
		c6.745-2.046,15.265-6.885,16.467-14.536C253.921,120.366,226.341,115.969,213.101,120.383z M126.251,60.595
		c7.729-0.44,7.788,8.859,8.654,14.065c-5.326-0.266-10.651-0.365-15.955-0.298c-0.772,0.01-1.692,0.023-2.74,0.042
		C117.023,69.256,120.795,60.905,126.251,60.595z M75.641,82.249c8.901-1.75,17.909-2.919,26.953-3.634
		c0.166,0.014,0.303,0.01,0.464-0.037c5.29-0.408,10.588-0.701,15.893-0.757c9.667-0.102,30.05-0.224,48.46,2.946
		c-6.791-0.048-13.623,0.248-20.366,0.43c-0.928,0.025-0.93,1.418,0,1.443c9.492,0.256,19.165,0.77,28.645,0.174
		c0.215-0.014,0.35-0.122,0.485-0.225c4.856,1.206,9.407,2.703,13.361,4.578c-10.749-1.194-22.587,0.34-33.293,0.863
		c-0.845,0.041-0.856,1.317,0,1.322c11.267,0.055,23.868,1.221,34.952-0.839c0.208-0.039,0.317-0.206,0.375-0.393
		c2.863,1.532,5.354,3.287,7.348,5.3c-9.299-0.713-19.05,0.183-28.334,0.587c-1.013,0.044-1.023,1.572,0,1.582
		c9.728,0.099,20.006,0.766,29.661-0.469c0.057-0.007,0.079-0.051,0.13-0.066c1.145,1.425,2.086,2.953,2.73,4.622
		c-26.385-0.504-52.808-0.159-79.187-0.22c-28.493-0.066-57.224-1.309-85.724-0.177C36.908,93.833,71.285,83.105,75.641,82.249z
		 M176.712,140.968c9.746,0.485,22.058,0.439,31.378-3.049c-0.148,3.41-0.45,6.803-1.025,10.141
		c-12.14,0.491-24.292,2.27-36.491,2.706c-0.933,0.033-0.924,1.386,0,1.443c11.508,0.713,24.684,0.773,36.096-1.95
		c-0.556,2.736-1.252,5.436-2.12,8.079c-0.075-0.009-0.136-0.038-0.22-0.034c-12.614,0.57-25.265,1.639-37.841,2.78
		c-0.941,0.086-0.977,1.523,0,1.495c12.384-0.355,24.829-0.8,37.188-1.7c-2.691,7.208-6.624,13.957-11.951,19.903
		c-13.197,0.776-26.348,2.15-39.564,2.818c-0.955,0.048-0.969,1.49,0,1.495c12.286,0.069,24.847-0.216,37.087-1.716
		c-0.527,0.523-1.032,1.061-1.583,1.569c-2.443,2.253-4.98,4.218-7.593,5.952c-12.074,0.732-24.295,1.41-36.258,3.207
		c-0.796,0.12-0.589,1.389,0.187,1.383c10.661-0.089,21.382-1.092,32.018-2.133c-16.717,9.281-36.272,9.811-55.922,9.164
		c-22.939-0.756-46.927-5.83-63.609-22.81c-17.346-17.656-19.682-43.183-19.976-66.641c29.156-1.697,58.157-2.594,87.41-2.028
		c27.176,0.525,54.621,2.81,81.854,2.625c0.392,1.658,0.725,3.329,1.023,5.007c-10.186-0.653-20.959,0.836-31.104,1.426
		c-1.041,0.06-1.06,1.65,0,1.634c10.267-0.161,21.227,0.517,31.443-0.914c0.099,0.642,0.219,1.281,0.305,1.925
		c-0.003,0.06,0.021,0.111,0.026,0.171c0.181,1.371,0.268,2.746,0.382,4.12c-8.98,0.347-18.076,0.924-27.041,1.451
		c-0.44,0.026-0.602,0.739-0.111,0.82c8.597,1.41,18.627,1.38,27.344-0.198c0.137,2.34,0.194,4.681,0.143,7.015
		c-4.863,0.202-9.646,1.508-14.48,2.126c-5.652,0.722-11.309,1.002-16.993,1.341C175.83,139.647,175.825,140.924,176.712,140.968z
		 M206.181,110.242c-27.264-2.014-55.037-1.739-82.261-2.187c-31.646-0.521-63.663-0.485-95.097,3.566
		c-0.137,0.018-0.207,0.115-0.312,0.173c-2.184-0.79-2.336-4.144-2.283-6.089c0.028-1.044,0.039-2.5,0.797-3.322
		c0.768-0.833,1.746-0.61,2.735-0.695c0.439-0.038,0.741-0.295,0.876-0.631c30.961,2.019,62.262,0.814,93.281,1.037
		c26.841,0.193,53.728,0.806,80.578,0.514c0.537,0.308,1.214,0.27,1.775-0.022c3.665-0.046,7.331-0.048,10.994-0.134
		c0.166-0.004,0.305-0.046,0.436-0.096c0.501,1.474,1.072,2.804,0.993,4.506c-0.072,1.541-0.447,3.026-1.145,4.369
		c-3.03-0.302-6.071-0.553-9.114-0.793C207.854,109.811,206.881,109.805,206.181,110.242z M246.243,142.518
		c-6.465,11.996-24.802,11.639-35.755,7.969c0.59-3.105,0.981-6.251,1.2-9.42c3.793,2.186,8.323,3.536,12.587,1.874
		c3.342-1.303,6.113-4.416,5.934-8.165c-0.182-3.814-3.094-7.085-6.844-7.684c-2.133-0.34-4.253,0.222-6.291,0.801
		c-1.817,0.516-3.605,0.817-5.411,1.118c-0.111-1.649-0.335-3.296-0.529-4.944c1.167-0.173,2.365-0.555,3.464-1.029
		c6.516-0.646,12.899-1.852,19.363,0.085C241.212,125.292,250.943,133.797,246.243,142.518z M211.769,139.284
		c0.111-2.313,0.153-4.634,0.08-6.963c4.575-0.074,9.879-4.185,13.512-0.776c3.395,3.184,0.826,7.556-2.817,8.814
		c-3.51,1.211-7.291-0.076-10.686-1.083C211.824,139.266,211.802,139.29,211.769,139.284z"/>
	<path style="fill:#1D1D1B;" d="M32.336,140.783c-2.645,0.293-15,2.553-13.341-2.81c1.355-4.383,10.61-3.706,14.058-3.58
		c0.912,0.033,1.096-1.363,0.215-1.588c-5.255-1.344-17.054-1.97-17.636,5.877c-0.586,7.897,12.581,6.49,17.068,4.782
		C34.011,142.964,33.989,140.599,32.336,140.783z"/>
	<path style="fill:#1D1D1B;" d="M197.241,168.181c-12.393,0.942-24.437,2.476-36.913,2.209c-1.092-0.023-1.076,1.624,0,1.687
		c12.23,0.718,25.178,0.931,37.219-1.641C198.796,170.168,198.539,168.083,197.241,168.181z"/>
</g>
<g>
</g>
<g>
</g>
<g>
</g>
<g>
</g>
<g>
</g>
<g>
</g>
<g>
</g>
<g>
</g>
<g>
</g>
<g>
</g>
<g>
</g>
<g>
</g>
<g>
</g>
<g>
</g>
<g>
</g>
</svg>
