<?xml version="1.0" encoding="iso-8859-1"?>
<!-- Generator: Adobe Illustrator 18.0.0, SVG Export Plug-In . SVG Version: 6.00 Build 0)  -->
<!DOCTYPE svg PUBLIC "-//W3C//DTD SVG 1.1//EN" "http://www.w3.org/Graphics/SVG/1.1/DTD/svg11.dtd">
<svg version="1.1" id="Capa_1" xmlns="http://www.w3.org/2000/svg" xmlns:xlink="http://www.w3.org/1999/xlink" x="0px" y="0px"
	 viewBox="0 0 250.479 250.479" style="enable-background:new 0 0 250.479 250.479;" xml:space="preserve">
<g>
	<path style="fill:#1D1D1B;" d="M163.78,234.724c-16.23-0.75-32.543-0.574-48.788-0.792c-0.789-0.011-0.786,1.199,0,1.224
		c16.243,0.519,32.537,1.436,48.788,1.422C164.978,236.576,164.967,234.779,163.78,234.724z"/>
	<path style="fill:#1D1D1B;" d="M167.327,226.06c-14.679,0.518-29.303,1.477-44.005,1.556c-0.671,0.004-0.671,1.031,0,1.044
		c14.631,0.269,29.419,0.409,44.005-0.89C168.405,227.673,168.442,226.02,167.327,226.06z"/>
	<path style="fill:#1D1D1B;" d="M166.783,217.311c-11.539,0.356-22.974,1.37-34.543,1.238c-0.72-0.008-0.718,1.095,0,1.115
		c11.485,0.337,23.324,0.599,34.734-0.939C167.783,218.616,167.584,217.286,166.783,217.311z"/>
	<path style="fill:#1D1D1B;" d="M168.523,207.308c-9.65,0.651-18.849,1.583-28.544,0.626c-0.941-0.092-0.913,1.346,0,1.458
		c9.372,1.145,19.49,1.61,28.735-0.67C169.488,208.531,169.344,207.253,168.523,207.308z"/>
	<path style="fill:#1D1D1B;" d="M166.74,195.518c-7.145,0.113-14.252,0.692-21.406,0.612c-0.814-0.008-0.81,1.234,0,1.26
		c7.162,0.233,14.46,0.362,21.568-0.688C167.58,196.602,167.407,195.508,166.74,195.518z"/>
	<g>
		<path style="fill:#1D1D1B;" d="M167.621,199.805c-0.566-37.728-0.2-75.623-2.104-113.306c-0.042-0.836-0.554-1.342-1.164-1.532
			c-2.451-8.521-8.341-12.278-14.419-19.845c-10.799-13.442-6.275-40.006-6.898-56.37c-0.038-0.987-0.632-1.604-1.356-1.849
			c-1.882-5.399-11.331-6.678-16.361-6.877c-3.988-0.157-8.181,0.384-11.384,2.972c-1.456,1.175-2.601,2.652-3.23,4.425
			c-0.186,0.525-0.276,1.099-0.338,1.689c-0.695,0.136-1.34,0.652-1.451,1.569c-0.223,1.837-0.357,3.689-0.528,5.534
			c-0.011,0.073-0.028,0.134-0.02,0.206c-1.073,11.716-1.269,23.571-1.82,35.302c-0.796,16.952-12.332,21.339-23.373,31.527
			c-0.565,0.522-0.093,1.25,0.523,1.32c-1.851,37.461-0.735,75.208-0.774,112.712c-0.011,10.469-8.154,51.655,10.802,50.85
			c0.355-0.015,0.63-0.132,0.869-0.286c19.352,2.724,40.491,3.531,59.693,1.482c0.218,0.293,0.551,0.49,1.026,0.44
			C175.773,247.651,167.815,212.719,167.621,199.805z M122.607,193.296c-5.9-1.1-12.211-0.391-18.18-0.293
			c-6.22,0.104-12.614-0.187-18.713,1.152c0.288-14.383,1.091-27.14,1.095-30.689c0.013-12.252,0.15-24.526,0.176-36.8
			c5.682,1.33,11.599,1.535,17.414,1.832c5.863,0.299,11.906,0.832,17.757,0.129c-0.002,0.048-0.024,0.081-0.023,0.131
			C122.392,150.32,123.208,171.726,122.607,193.296z M156.923,246.078c-0.187-0.083-0.397-0.145-0.644-0.164
			c-20.487-1.57-42.027-1.648-62.718-1.203c-7.282-0.707-8.261-26.46-7.876-48.958c6.108,1.346,12.513,1.053,18.743,1.157
			c6.37,0.106,13.135,0.924,19.369-0.524c0.779,0.079,1.66-0.384,1.754-1.4c2.025-21.845,2.91-44.382,0.489-66.229
			c-0.081-0.728-0.478-1.223-0.977-1.53c0.12-0.762-0.193-1.618-1.027-1.789c-6.384-1.317-13.131-0.918-19.635-1.077
			c-5.8-0.142-11.638-0.504-17.403,0.161c0.012-13.334-0.132-26.663-0.761-39.961c-0.019-0.392-0.181-0.678-0.402-0.883
			c8.984-4.471,21.267-10.215,24.217-20.171c1.971-6.651,0.928-15.83,1.251-22.731c0.409-8.749,1.029-17.541,1.009-26.308
			c1.312-2.528,1.57-5.717,3.798-7.823c3.05-2.883,7.18-2.755,11.159-2.385c4.946,0.461,10.063,1.218,11.179,6.929
			c0.07,0.356,0.271,0.585,0.493,0.78c-0.023,4.91-0.167,9.968-0.257,15.053c-4.343-1.162-9.202-0.78-13.66-0.854
			c-4.093-0.067-8.541-0.807-12.331,0.911c-0.518,0.235-0.468,1.056,0,1.306c3.671,1.964,8.247,1.476,12.331,1.667
			c4.448,0.208,9.221,0.869,13.62-0.009c-0.104,8.467,0.035,16.951,1.254,24.918c2.136,13.966,16.171,19.883,22.247,32.456
			c-0.497,24.847,0.323,49.769,0.676,74.617C163.003,175.007,170.328,236.502,156.923,246.078z"/>
		<path style="fill:#1D1D1B;" d="M163.026,184.922c-6.048,0.83-11.573,1.981-17.722,1.277c-0.718-0.083-0.894,1.169-0.171,1.272
			c5.952,0.852,12.735,1.022,18.309-1.563C164.05,185.627,163.574,184.848,163.026,184.922z"/>
		<path style="fill:#1D1D1B;" d="M164.372,177.059c-6.603,0.589-12.966,1.762-19.633,1.727c-0.93-0.005-0.926,1.416,0,1.44
			c6.472,0.167,13.572,0.124,19.818-1.788C165.281,178.217,165.193,176.986,164.372,177.059z"/>
		<path style="fill:#1D1D1B;" d="M163.193,167.1c-5.549,0.144-11.149,1.201-16.655,1.888c-0.696,0.087-0.726,1.18,0,1.116
			c5.579-0.49,11.327-0.643,16.833-1.679C164.125,168.284,163.945,167.081,163.193,167.1z"/>
		<path style="fill:#1D1D1B;" d="M163.176,153.769c-6.166,0.716-12.216,1.418-18.438,1.253c-0.907-0.025-0.896,1.353,0,1.403
			c6.226,0.351,12.544,0.245,18.641-1.154C164.201,155.083,164.044,153.668,163.176,153.769z"/>
		<path style="fill:#1D1D1B;" d="M164.983,142.343c-5.534-0.244-11.116,0.378-16.674,0.204c-0.814-0.025-0.804,1.216,0,1.26
			c5.497,0.305,11.398,0.748,16.837-0.262C165.851,143.414,165.645,142.372,164.983,142.343z"/>
		<path style="fill:#1D1D1B;" d="M164.376,131.795c-5.399,0.08-10.43,0.726-15.848-0.075c-1.024-0.151-1.483,1.401-0.437,1.58
			c5.255,0.896,11.298,1.555,16.494,0.051C165.431,133.106,165.285,131.782,164.376,131.795z"/>
		<path style="fill:#1D1D1B;" d="M162.582,121.075c-5.699-0.491-11.532-0.076-17.248,0c-0.962,0.013-0.964,1.481,0,1.494
			c5.715,0.075,11.549,0.491,17.248,0C163.54,122.486,163.543,121.158,162.582,121.075z"/>
		<path style="fill:#1D1D1B;" d="M161.504,110.082c-3.016,0.626-6.327,0.197-9.382,0.133c-3.241-0.068-6.483-0.137-9.725-0.205
			c-0.514-0.011-0.504,0.756,0,0.792l11.967,0.839c2.48,0.174,5.411,0.985,7.659-0.325
			C162.705,110.919,162.237,109.931,161.504,110.082z"/>
		<path style="fill:#1D1D1B;" d="M161.391,100.79c-6.515-0.414-13.103-0.012-19.627,0.107c-0.904,0.017-0.904,1.388,0,1.405
			c6.524,0.119,13.112,0.521,19.627,0.107C162.434,102.344,162.436,100.857,161.391,100.79z"/>
		<path style="fill:#1D1D1B;" d="M159.607,91.224c-8.695-0.206-17.449,0.372-26.167,0.236c-0.774-0.012-0.752,1.125,0,1.188
			c8.525,0.718,17.655,1.298,26.167,0.267C160.66,92.789,160.726,91.251,159.607,91.224z"/>
		<path style="fill:#1D1D1B;" d="M159.023,82.111c-9.59-0.048-18.973,0.245-28.538-0.808c-0.649-0.071-0.634,0.928,0,1.008
			c9.357,1.183,19.126,2.091,28.538,1.059C159.809,83.285,159.854,82.115,159.023,82.111z"/>
		<path style="fill:#1D1D1B;" d="M152.469,72.956c-9.278-0.749-18.649-0.828-27.951-1.206c-0.881-0.036-0.877,1.327,0,1.368
			c9.299,0.443,18.641,1.191,27.951,1.259C153.395,74.385,153.371,73.029,152.469,72.956z"/>
		<path style="fill:#1D1D1B;" d="M146.564,62.712c-6.616-0.241-12.891,0.094-19.479-1.082c-0.776-0.139-1.119,1.028-0.33,1.197
			c6.389,1.366,13.51,2.472,20,1.299C147.581,63.977,147.343,62.74,146.564,62.712z"/>
		<path style="fill:#1D1D1B;" d="M142.364,53.786c-4.751-0.284-9.526,0.04-14.28,0.192c-0.728,0.023-0.733,1.136,0,1.134
			c4.756-0.012,9.541,0.147,14.28-0.3C143.017,54.75,143.032,53.826,142.364,53.786z"/>
		<path style="fill:#1D1D1B;" d="M140.6,44.715c-5.171,0.106-10.306,0.449-15.486,0.317c-0.782-0.02-0.767,1.151,0,1.206
			c5.197,0.366,10.493,0.529,15.667-0.18C141.552,45.952,141.357,44.699,140.6,44.715z"/>
		<path style="fill:#1D1D1B;" d="M139.381,36.015c-4.687-0.588-9.567-0.337-14.275-0.117c-0.795,0.037-0.802,1.223,0,1.242
			c4.751,0.113,9.528,0.592,14.275,0.549C140.487,37.679,140.42,36.145,139.381,36.015z"/>
	</g>
</g>
<g>
</g>
<g>
</g>
<g>
</g>
<g>
</g>
<g>
</g>
<g>
</g>
<g>
</g>
<g>
</g>
<g>
</g>
<g>
</g>
<g>
</g>
<g>
</g>
<g>
</g>
<g>
</g>
<g>
</g>
</svg>
