<?xml version="1.0" encoding="iso-8859-1"?>
<!-- Generator: Adobe Illustrator 18.0.0, SVG Export Plug-In . SVG Version: 6.00 Build 0)  -->
<!DOCTYPE svg PUBLIC "-//W3C//DTD SVG 1.1//EN" "http://www.w3.org/Graphics/SVG/1.1/DTD/svg11.dtd">
<svg version="1.1" id="Capa_1" xmlns="http://www.w3.org/2000/svg" xmlns:xlink="http://www.w3.org/1999/xlink" x="0px" y="0px"
	 viewBox="0 0 271.191 271.191" style="enable-background:new 0 0 271.191 271.191;" xml:space="preserve">
<g>
	<path style="fill:#1D1D1B;" d="M215.048,241.656c-9.247-19.975-19.316-39.161-27.563-59.683
		c15.149-14.169,24.019-34.993,22.783-57.478c-0.095-1.729-1.908-2.286-3.076-1.705c-0.116-0.818-0.69-1.591-1.755-1.683
		c-42.342-3.652-86.584-4.036-129.025-1.134c15.805-37.119,32.049-74.427,46.406-112.1c0.519-1.363-1.02-2.412-2.194-2.126
		c-0.092-0.09-0.15-0.193-0.265-0.273C90.066-15.53,72.645,29.218,64.827,50.199c-7.465,20.035-26.707,66.229,8.23,71.676
		c0.096,0.139,0.171,0.293,0.309,0.399c0.009,0.018,0.006,0.04,0.016,0.057c-0.764-0.246-1.796,0.19-1.916,1.249
		c-2.563,22.637,6.479,44.016,22.077,58.479c-4.632,12.3-41.92,80.164-25.964,86.699c3.409,3.697,9.8,3.065,14.272-1.09
		c6.545-6.083,8.734-18.391,11.457-26.326c1.767-5.15,3.544-10.276,5.353-15.385c10.422,0.093,21.254,0.156,31.643-1.134
		c-0.346,6.751-0.45,13.484-0.024,20.022c0.349,5.358,2.002,10.014,6.457,11.643c2.342,1.697,8.123,0.456,10.324-1.965
		c4.395-4.833,3.342-13.032,3.356-19.012c0.01-4.042-0.008-8.084-0.008-12.125c9.581,1.736,20.777,4.256,30.331,3.158
		c0,0,0.039-0.027,0.064-0.031c3.835,11.863,8.454,23.396,14.691,32.751c4.115,6.172,11.15,11.109,17.045,7.398
		c0.347,0.366,0.905,0.525,1.284,0.054C220.217,258.772,219.231,250.692,215.048,241.656z M68.017,54.123
		c7.333-19.681,21.007-63.14,50.265-45.094c0.052,0.032,0.099,0.03,0.151,0.057c-17.194,35.339-31.802,72.829-44.917,109.836
		C44.195,110.398,60.905,73.208,68.017,54.123z M74.21,123.58c0.004-0.265-0.059-0.476-0.152-0.661
		c0.16,0.06,0.331,0.11,0.536,0.115c43.518,1.032,87.318,1.634,130.843,1.813c0.299,0.001,0.557-0.053,0.781-0.146
		c1.695,38.477-26.427,72.266-66.183,72.01C99.434,196.449,73.605,162.138,74.21,123.58z M150.392,199.84
		c7.462-1.077,14.485-3.301,20.903-6.517c1.861,6.583,3.756,13.698,5.824,20.917c-8.29-3.656-17.751-5.821-26.722-7.112
		C150.395,204.699,150.4,202.27,150.392,199.84z M94.158,227.158c-2.121,6.141-4.145,12.315-6.283,18.451
		c-1.216,3.505-2.461,6.999-3.735,10.483c-1.545,8.317-7.01,10.825-16.3,7.663c-3.476-14.352,23.996-67.539,27.512-80.096
		c3.973,3.44,8.365,6.396,13.037,8.884c-0.223,0.155-0.427,0.362-0.579,0.676C102.483,204.241,98.153,215.59,94.158,227.158z
		 M130.469,221.73c-10.305,0.097-20.783,1.282-31.057,2.13c0.806-2.251,1.627-4.495,2.461-6.734
		c9.436-0.643,19.848-0.823,29.161-2.879C130.834,216.738,130.623,219.228,130.469,221.73z M131.272,211.095
		c-9.338,0.059-19.326,2.189-28.539,3.77c2.529-6.666,5.224-13.272,8.291-19.767c0.188-0.398,0.196-0.775,0.137-1.131
		c6.543,3.113,13.633,5.238,21.089,6.137C131.928,203.716,131.589,207.39,131.272,211.095z M137.016,252.337
		c-0.01-0.178-0.154-0.294-0.314-0.33c-5.334-6.438-2.603-20.708-2.441-27.148c0.007-0.286,0.006-0.571,0.013-0.857
		c0.328-0.441,0.314-1.091,0.023-1.602c0.072-3.356,0.111-6.71,0.124-10.064c-0.003-0.042,0.008-0.077,0.001-0.118
		c0.013-3.973-0.016-7.946-0.127-11.922c1.895,0.17,3.805,0.286,5.741,0.293c2.382,0.008,4.719-0.127,7.025-0.347
		c-0.037,8.237-0.068,16.473-0.068,24.71c0,4.222,0.011,8.445,0,12.668c0.004,1.408,0.008,2.815,0.013,4.223
		C147.923,247.607,144.593,251.106,137.016,252.337z M150.406,221.379c-0.001-4.065-0.006-8.13-0.008-12.195
		c9.033,2.225,17.502,5.272,26.336,8.251c0.479,0.161,0.906,0.036,1.249-0.217c0.653,2.228,1.315,4.461,2.011,6.687
		C170.647,221.768,159.976,222.104,150.406,221.379z M214.172,261.482c-0.05,0.036-0.105,0.053-0.151,0.097
		c-14.228,13.708-25.312-26.152-28.194-34.044c-4.283-11.725-8.167-23.59-12.404-35.332c4.054-2.214,7.831-4.846,11.333-7.794
		c4.066,10.4,8.188,20.802,12.841,30.956C203.479,228.2,218.851,246.663,214.172,261.482z"/>
	<path style="fill:#1D1D1B;" d="M123.166,77.706c0.014-5.89-4.293-11.263-9.006-14.341c-1.305-0.852-3.089,0.868-2.183,2.183
		c1.056,1.534,2.22,2.716,3.323,4.176c4.094,5.419,3.304,11.888-0.876,16.985c-2.431,2.965-5.53,5.875-6.297,9.83
		c-0.905,4.662,1.026,8.88,5.489,10.447c1.273,0.447,2.04-1.493,0.906-2.148c-8.933-5.164,2.073-14.061,4.844-17.769
		C121.498,84.218,123.158,81.342,123.166,77.706z"/>
	<path style="fill:#1D1D1B;" d="M148.626,53.237c-1.348-1.362-3.588,0.376-2.64,2.037c1.825,3.199,3.924,5.811,6.075,8.788
		c3.241,4.486,3.433,4.78,2.592,11.215c-0.851,6.508-0.89,6.117-4.634,9.836c-1.307,1.299-2.853,2.649-3.878,4.221
		c-2.989,4.583-3.29,9.926,0.951,13.738c1.475,1.326,3.486-0.692,2.172-2.172c-6.869-7.734,10.834-16.485,12.034-24.572
		C162.582,67.674,154.155,58.819,148.626,53.237z"/>
	<path style="fill:#1D1D1B;" d="M192.794,78.504c-0.594-8.098-6.626-15.35-13-19.819c-1.359-0.954-3.381,0.984-2.347,2.347
		c3.74,4.934,9.434,9.189,10.738,15.547c1.989,9.692-5.182,12.445-8.443,19.662c-2.681,5.934-1.359,12.552,5.525,14.103
		c1.286,0.29,2.302-1.685,0.952-2.258c-11.102-4.711,2.45-16.274,4.611-20.43C192.333,84.767,193.034,81.776,192.794,78.504z"/>
	<path style="fill:#1D1D1B;" d="M180.264,186.822c-5.951-1.61-11.876-0.768-17.941-0.232c-8.257,0.728-16.527,1.359-24.768,2.25
		c-0.718,0.078-0.753,1.187,0,1.15c13.507-0.664,28.875-4.251,42.207-1.348C180.941,188.898,181.443,187.141,180.264,186.822z"/>
	<path style="fill:#1D1D1B;" d="M185.733,179.507c-13.169,0.293-25.953,1.018-39.12-0.342c-0.554-0.057-0.534,0.786,0,0.858
		c12.841,1.713,26.426,2.766,39.29,0.731C186.615,180.641,186.437,179.491,185.733,179.507z"/>
	<path style="fill:#1D1D1B;" d="M193.562,168.431c-13.266,2.502-26.049,4.148-39.566,3.204c-0.577-0.041-0.563,0.838,0,0.892
		c13.248,1.267,27.05,0.887,39.907-2.855C194.707,169.437,194.366,168.278,193.562,168.431z"/>
	<path style="fill:#1D1D1B;" d="M200.48,160.155c-10.565,0.146-21.199,1.085-31.757,1.627c-0.843,0.043-0.856,1.319,0,1.321
		c10.512,0.023,21.317-0.051,31.757-1.352C201.468,161.628,201.538,160.14,200.48,160.155z"/>
	<path style="fill:#1D1D1B;" d="M203.304,148.188c-10.6,0.793-21.117,2.339-31.742,2.98c-0.854,0.052-0.867,1.369,0,1.338
		c10.607-0.371,21.503-0.798,31.938-2.869C204.308,149.477,204.136,148.126,203.304,148.188z"/>
	<path style="fill:#1D1D1B;" d="M206.735,139.367c-11.575,0.539-22.99,1.79-34.608,1.651c-0.708-0.008-0.704,1.068,0,1.098
		c11.504,0.485,23.428,0.721,34.803-1.316C207.737,140.654,207.552,139.329,206.735,139.367z"/>
	<path style="fill:#1D1D1B;" d="M206.147,132.147c-11.319-0.169-22.679,0.662-34.02,0.574c-1.162-0.009-1.154,1.758,0,1.801
		c11.219,0.415,22.849,0.918,34.02-0.368C207.398,134.01,207.473,132.167,206.147,132.147z"/>
	<path style="fill:#1D1D1B;" d="M217.495,256.303c-4.925,0.208-9.856,0.883-14.763,1.368c-0.784,0.078-0.79,1.316,0,1.235
		c4.957-0.504,9.976-0.829,14.899-1.61C218.194,257.207,218.06,256.279,217.495,256.303z"/>
	<path style="fill:#1D1D1B;" d="M213.996,251.277c-2.427,0.453-4.818,0.684-7.285,0.502c-0.463-0.034-0.457,0.68,0,0.72
		c2.526,0.223,5.017,0.104,7.467-0.561C214.609,251.821,214.425,251.196,213.996,251.277z"/>
	<path style="fill:#1D1D1B;" d="M215.782,243.642c-4.368-0.386-8.905,0.288-13.148,1.31c-0.474,0.114-0.272,0.823,0.202,0.728
		c4.361-0.881,8.53-0.933,12.946-0.871C216.543,244.82,216.519,243.707,215.782,243.642z"/>
	<path style="fill:#1D1D1B;" d="M208.413,234.62c-3.397,0.351-6.791,0.62-10.206,0.43c-0.853-0.047-0.842,1.26,0,1.321
		c3.508,0.257,6.929,0.143,10.344-0.723C209.108,235.508,209.012,234.559,208.413,234.62z"/>
	<path style="fill:#1D1D1B;" d="M205.577,224.888c-2.461-0.138-4.906-0.086-7.37-0.034c-0.838,0.018-0.84,1.286,0,1.304
		c2.464,0.052,4.909,0.104,7.37-0.034C206.372,226.079,206.372,224.932,205.577,224.888z"/>
	<path style="fill:#1D1D1B;" d="M197.211,216.522c-2.191-0.49-4.412-0.191-6.548,0.422c-0.638,0.184-0.372,1.139,0.275,0.993
		c2.055-0.467,4.042-0.415,6.128-0.354C197.669,217.602,197.81,216.656,197.211,216.522z"/>
	<path style="fill:#1D1D1B;" d="M194.806,209.03c-3.202-0.142-6.435,0.062-9.64,0.137c-0.595,0.014-0.597,0.912,0,0.926
		c3.204,0.076,6.437,0.28,9.64,0.138C195.578,210.197,195.578,209.065,194.806,209.03z"/>
	<path style="fill:#1D1D1B;" d="M191.403,200.586c-2.816-0.221-5.679-0.056-8.503-0.026c-0.729,0.008-0.731,1.125,0,1.132
		c2.824,0.03,5.687,0.196,8.503-0.025C192.098,201.613,192.1,200.641,191.403,200.586z"/>
	<path style="fill:#1D1D1B;" d="M189.133,192.617c-2.62-0.308-5.299-0.329-7.931-0.472c-0.572-0.031-0.549,0.816,0,0.875
		c2.631,0.285,5.286,0.697,7.931,0.815C189.932,193.872,189.891,192.707,189.133,192.617z"/>
</g>
<g>
</g>
<g>
</g>
<g>
</g>
<g>
</g>
<g>
</g>
<g>
</g>
<g>
</g>
<g>
</g>
<g>
</g>
<g>
</g>
<g>
</g>
<g>
</g>
<g>
</g>
<g>
</g>
<g>
</g>
</svg>
