<?xml version="1.0" encoding="iso-8859-1"?>
<!-- Generator: Adobe Illustrator 18.0.0, SVG Export Plug-In . SVG Version: 6.00 Build 0)  -->
<!DOCTYPE svg PUBLIC "-//W3C//DTD SVG 1.1//EN" "http://www.w3.org/Graphics/SVG/1.1/DTD/svg11.dtd">
<svg version="1.1" id="Capa_1" xmlns="http://www.w3.org/2000/svg" xmlns:xlink="http://www.w3.org/1999/xlink" x="0px" y="0px"
	 viewBox="0 0 450.196 450.196" style="enable-background:new 0 0 450.196 450.196;" xml:space="preserve">
<path d="M391.837,166.954c-15.14-30.708-40.574-76.75-75.759-121.718C293.583,16.488,259.731,0,223.202,0
	c-40.184,0-77.285,20.042-99.245,53.612c-27.002,41.279-51.117,90.343-67.9,138.152c-5.03,14.329-3.257,29.91,4.864,42.75
	c8.147,12.88,21.518,21.185,36.685,22.786c24.544,2.591,49.963,3.905,75.55,3.905c0.008,0,0.006,0,0.014,0
	c1.219,0,2.432-0.023,3.65-0.029c-0.847,24.174-3.792,109.141-3.792,121.342c0,25.797,7.628,43.963,22.672,53.992
	c9.438,6.292,31.64,13.688,53.168,13.687c8.774,0,17.44-1.229,25.079-4.263c12.18-4.836,20.108-13.85,22.927-26.067
	c5.285-22.901-0.525-56.429-6.677-91.925c-4.409-25.44-8.952-51.681-9.455-74.612c27.128-4.044,53.752-9.634,79.725-16.757
	c14.33-3.93,26.038-13.946,32.124-27.481C398.658,195.592,398.384,180.233,391.837,166.954z M278.372,329.991
	c5.939,34.269,11.549,66.636,6.809,87.177c-1.274,5.52-3.916,9.887-7.989,13.207c2.371-27.418-1.827-56.718-2.03-58.106
	c-0.319-2.186-2.349-3.7-4.537-3.379c-2.186,0.32-3.699,2.351-3.379,4.537c0.052,0.353,4.844,33.777,1.408,61.668
	c-2.265,0.837-4.663,1.491-7.162,1.972c0.687-16.664-1.209-39.452-1.302-40.557c-0.187-2.201-2.128-3.838-4.322-3.649
	c-2.202,0.186-3.835,2.121-3.649,4.322c0.023,0.273,2.051,24.644,1.22,40.868c-16.716,0.992-35.545-3.75-46.284-8.869
	c-1.786-8.217-3.415-22.177-3.971-27.733c-0.219-2.198-2.179-3.804-4.378-3.582c-2.198,0.22-3.802,2.18-3.582,4.378
	c0.066,0.661,1.12,11.095,2.649,20.659c-8.625-8.29-12.846-21.569-12.846-40.388c0-11.942,2.996-98.383,3.805-121.495
	c27.01-0.562,53.708-2.559,79.954-6.013C269.456,278.476,273.975,304.622,278.372,329.991z M369.795,218.91
	c-13.328-26.803-33.068-55.993-33.281-56.307c-1.24-1.829-3.729-2.305-5.556-1.064c-1.828,1.24-2.305,3.728-1.064,5.556
	c0.211,0.311,19.923,29.455,32.992,55.882c-1.794,0.811-3.661,1.494-5.594,2.024c-11.06,3.033-22.241,5.782-33.53,8.249
	c-11.49-34.806-43.545-99.308-44.977-102.184c-0.985-1.978-3.387-2.782-5.364-1.797c-1.978,0.985-2.782,3.386-1.797,5.364
	c0.346,0.694,32.667,65.729,44.257,100.272c-18.098,3.727-36.466,6.725-55.059,8.997c-1.658-19.775-6.438-51.181-6.664-52.656
	c-0.333-2.184-2.373-3.686-4.558-3.35c-2.184,0.333-3.684,2.375-3.35,4.558c0.055,0.36,4.996,32.811,6.623,52.38
	c-9.169,1.015-18.392,1.847-27.66,2.508c-0.366-26.841-2.987-73.215-3.015-73.719c-0.125-2.205-2.001-3.892-4.221-3.767
	c-2.206,0.125-3.892,2.015-3.767,4.221c0.029,0.505,2.67,47.247,3.008,73.794c-13.591,0.817-27.278,1.256-41.046,1.312
	c0.517-38.498,13.817-107.84,13.958-108.574c0.419-2.169-1-4.267-3.169-4.686c-2.171-0.42-4.267,1-4.686,3.169
	c-0.584,3.025-13.612,70.958-14.105,110.083c-16.553-0.113-33.009-0.778-49.174-1.998l5.147-29.642
	c0.378-2.177-1.08-4.248-3.256-4.625c-2.175-0.378-4.248,1.08-4.625,3.256l-5.271,30.356c-2.614-0.228-5.218-0.472-7.814-0.729
	c4.745-27.452,15.769-68.458,15.888-68.901c0.575-2.133-0.688-4.329-2.82-4.903c-2.13-0.576-4.328,0.688-4.903,2.82
	c-0.494,1.831-11.365,42.273-16.111,69.985c-3.143-0.642-6.155-1.669-8.981-3.051l3.827-14.898c0.55-2.14-0.739-4.32-2.879-4.869
	c-2.136-0.55-4.319,0.739-4.869,2.879l-3.174,12.355c-1.423-1.155-2.766-2.416-4.015-3.781c3.069-12.79,13.544-51.679,34.464-85.473
	c1.163-1.878,0.583-4.344-1.295-5.506c-1.879-1.165-4.345-0.583-5.506,1.295c-18.724,30.246-29.157,63.653-33.705,80.84
	c-4.422-8.97-5.078-19.276-1.719-28.845c16.472-46.923,40.132-95.065,66.62-135.558C153.734,30.012,187.081,12,223.202,12
	c32.813,0,63.22,14.809,83.425,40.63c34.554,44.161,59.557,89.43,74.447,119.63c4.674,9.479,5.122,20.356,1.31,30.135
	c-15.865-35.04-54.377-79.137-56.174-81.185c-1.457-1.66-3.984-1.824-5.645-0.368c-1.66,1.457-1.825,3.984-0.368,5.645
	c0.456,0.52,43.992,50.363,57.25,84.81C375.274,214.203,372.692,216.759,369.795,218.91z"/>
<g>
</g>
<g>
</g>
<g>
</g>
<g>
</g>
<g>
</g>
<g>
</g>
<g>
</g>
<g>
</g>
<g>
</g>
<g>
</g>
<g>
</g>
<g>
</g>
<g>
</g>
<g>
</g>
<g>
</g>
</svg>
