<?xml version="1.0" encoding="iso-8859-1"?>
<!-- Generator: Adobe Illustrator 18.0.0, SVG Export Plug-In . SVG Version: 6.00 Build 0)  -->
<!DOCTYPE svg PUBLIC "-//W3C//DTD SVG 1.1//EN" "http://www.w3.org/Graphics/SVG/1.1/DTD/svg11.dtd">
<svg version="1.1" id="Capa_1" xmlns="http://www.w3.org/2000/svg" xmlns:xlink="http://www.w3.org/1999/xlink" x="0px" y="0px"
	 viewBox="0 0 46.28 46.28" style="enable-background:new 0 0 46.28 46.28;" xml:space="preserve">
<g>
	<path style="fill:#1D1D1B;" d="M46.114,23.92c-0.25-0.638-0.851-1.201-1.543-1.51c1.394-0.94,2.046-2.848,1.219-4.445
		c-0.197-0.381-0.509-0.716-0.88-0.997c1.015-0.83,1.328-2.515,0.95-3.7c-0.466-1.462-1.93-2.213-3.376-2.181
		c0.55-0.956,0.385-2.213-0.389-3.042c-0.685-0.734-1.764-0.94-2.702-0.668c-0.033-1.201-0.785-2.475-1.789-2.982
		c-1.139-0.575-2.45-0.295-3.387,0.461c-0.411-1.285-1.699-2.432-2.902-2.688c-2.445-0.519-3.906,1.254-4.59,3.302
		c-0.917-0.775-2.317-0.785-3.313-0.136c-0.015-0.379-0.105-0.76-0.238-1.083c-0.397-0.962-1.238-1.634-2.265-1.805
		c-1.082-0.18-2.508,0.32-3.291,1.194c-0.51-0.575-1.186-1.006-1.881-1.128c-1.627-0.286-3.042,0.898-3.471,2.378
		C10.914,3.901,8.94,3.584,7.528,4.393C6.12,5.199,5.406,6.954,5.867,8.455c-1.446-0.641-3.194,0.348-3.811,1.776
		c-0.77,1.784,0.082,3.725,1.396,5.013c-1.044,0.336-1.867,1.212-2.187,2.326c-0.099,0.344,0.438,0.593,0.594,0.251
		c0.506-1.107,1.705-1.968,2.968-1.731c0.936,0.176,1.339,0.733,1.75,1.382c-0.446,0.253-0.851,0.586-1.168,0.926
		c-0.314,0.336,0.079,0.818,0.479,0.621c0.444-0.218,0.921-0.393,1.39-0.554c0.446-0.153,0.908-0.233,1.314-0.482
		c0.341-0.209,0.29-0.762-0.113-0.867c-0.137-0.036-0.276-0.054-0.414-0.06c0.81-2.109,3.487-2.164,4.65-0.198
		c-0.22,0.379,0.342,0.829,0.64,0.477c0.42-0.497,1.096-0.758,1.708-0.438c0.247,0.129,0.478,0.335,0.616,0.576
		c0.072,0.125,0.108,0.258,0.147,0.388c-0.49,0.597-0.749,1.388-0.654,2.188c0.009,0.077,0.05,0.128,0.091,0.176
		c-1.028-0.862-2.563-0.958-3.706-0.224c-1.128,0.725-1.59,2.102-1.328,3.371c-1,0.02-1.971,0.739-2.398,1.62
		c-0.498,1.027-0.288,2.17,0.393,3.03c-1.07,1.292-0.945,2.98-0.236,4.424c-3.44-1.17-5.369-4.174-5.628-7.789
		c-0.004-0.054-0.036-0.091-0.061-0.133c0.321,0.036,0.508-0.486,0.188-0.657c-1.9-1.012-1.903-3.519-0.583-4.988
		c0.263-0.293-0.067-0.751-0.426-0.552c-2.36,1.307-1.666,4.913,0.463,6.045c-0.091,0.024-0.174,0.076-0.203,0.201
		c-0.962,4.118,2.672,8.258,6.679,8.614c0.266,0.396,0.573,0.762,0.907,1.078c2.546,2.407,6.379,3.614,9.621,4.872
		c-0.038,0.066-0.071,0.138-0.071,0.229c0,0.531,0.234,1.005,0.29,1.528c0.057,0.529-0.008,1.033-0.159,1.536
		c-0.125,0.049-0.179,0.22-0.075,0.324c0.008,0.008,0.017,0.014,0.026,0.022c0.032,0.193,0.215,0.33,0.408,0.348
		c2.563,1.922,7.604,1.084,9.714-1.016c0.009-0.008,0.012-0.019,0.019-0.028c0.23-0.018,0.445-0.23,0.383-0.516
		c-0.13-0.6-0.233-1.222-0.195-1.838c0.032-0.524,0.176-1.024,0.25-1.54c0.022-0.013,0.043-0.028,0.064-0.04
		c0.1,0.018,0.201,0.035,0.299,0.042c0.661,0.049,1.291-0.147,1.798-0.575c0.192-0.162,0.335-0.363,0.453-0.579
		c3.476-1.155,7.27-1.321,10.37-3.584c2.028-1.48,3.972-4.027,2.363-6.255C45.968,26.537,46.6,25.164,46.114,23.92z M30.845,3.545
		c1.561,0.29,1.781,1.435,2.051,2.664c-0.289-0.067-0.581-0.105-0.862-0.107c-0.404-0.003-0.385,0.574,0,0.615
		c1.108,0.119,1.708,0.805,2.429,1.559c0.245,0.257,0.742-0.006,0.617-0.359C34.9,7.41,34.538,7.015,34.095,6.72
		c0.075-0.141,0.127-0.285,0.169-0.43c0.642-0.867,1.935-1.274,2.891-0.665c1.148,0.732,0.975,2.089,0.649,3.192
		c-0.142,0.482,0.442,0.729,0.779,0.453c0.34-0.278,0.557-0.626,0.682-1.006c0.708-0.265,1.528-0.159,2.073,0.412
		c0.607,0.637,0.605,1.646,0.263,2.411c-0.128,0.286,0.134,0.609,0.398,0.537c0.014,0.004,0.024,0.018,0.039,0.02
		c1.214,0.146,2.312,1.074,2.604,2.282c0.242,1.001-0.181,1.741-0.647,2.527c-1.125-0.466-2.468-0.486-3.362,0.239
		c-0.314-1.357-1.377-2.389-2.856-2.43c-0.614-0.017-1.324,0.205-1.904,0.594c0.178-0.86-0.06-1.889-0.573-2.467
		c-0.713-0.805-1.9-0.948-2.857-0.556c0-0.004,0-0.008,0-0.012c-0.056-0.643-0.359-1.235-0.884-1.619
		c-0.817-0.599-1.942-0.48-2.682,0.136c-0.275-0.697-0.783-1.3-1.414-1.71c0.306-0.795,0.187-1.789-0.225-2.515
		C27.991,4.683,28.992,3.2,30.845,3.545z M9.975,14.327c-1.363,0.174-2.353,1.254-2.614,2.534c-0.484-0.902-1.574-1.588-2.49-1.734
		c-0.258-0.041-0.508-0.04-0.752-0.019c-0.756-1.131-1.531-2.487-1.228-3.862c0.32-1.449,1.745-2.474,3.214-2.139
		c0.02,0.005,0.033-0.006,0.052-0.006c0.049,0.082,0.081,0.169,0.138,0.247c0.001,0.002,0.003,0.002,0.004,0.004
		c-0.145,0.279-0.263,0.573-0.362,0.879c-0.121,0.372,0.476,0.637,0.643,0.271C6.821,9.972,7.14,9.47,7.522,9.027
		c0.352-0.408,0.861-0.686,1.156-1.131c0.177-0.267-0.114-0.535-0.377-0.491c-0.59,0.099-1.12,0.71-1.48,1.149
		C6.768,8.62,6.735,8.694,6.687,8.76C6.109,7.391,6.774,5.745,8.095,5.051c1.484-0.78,2.854-0.154,4.044,0.71
		c0.035,0.18,0.209,0.283,0.382,0.283c0.17,0.134,0.338,0.27,0.499,0.405c0.208,0.174,0.527-0.041,0.386-0.298
		c-0.13-0.239-0.291-0.462-0.476-0.669c0.344-1.185,1.506-2.142,2.799-1.88c0.653,0.132,1.086,0.491,1.375,0.957
		c-0.114,0.437-0.076,0.918,0.19,1.427c0.066,0.126,0.183,0.174,0.301,0.17c0.007,0.063,0.017,0.127,0.022,0.19
		c0.033,0.405,0.546,0.465,0.691,0.093c0.257-0.661,0.163-1.359-0.137-1.985c0.606-0.777,2.007-1.143,2.838-0.868
		c0.642,0.212,1.107,0.787,1.233,1.445c0.104,0.542-0.129,0.996-0.169,1.521c-0.024,0.322,0.385,0.543,0.648,0.372
		c0.227-0.148,0.387-0.346,0.498-0.572c0.125,0.03,0.264,0.014,0.391-0.086c0.744-0.591,1.945-0.478,2.508,0.309
		c0.392,0.548,0.332,1.059,0.139,1.565c-0.11-0.021-0.219-0.044-0.331-0.053c-1.644-0.131-3.089,0.917-3.687,2.386
		c-0.371-0.893-1.355-1.557-2.31-1.594c-1.152-0.044-2.08,0.71-2.459,1.719c-2.71-2.976-8.044-0.346-7.18,3.715
		C10.186,14.317,10.081,14.314,9.975,14.327z M15.433,15.794c-0.798-0.249-1.628-0.028-2.229,0.494
		c-0.391-1.036-1.357-1.787-2.45-1.944c0.091-1.444,0.927-2.953,2.238-3.572c1.535-0.725,3.163-0.159,4.367,0.914
		c0.299,0.267,0.804-0.062,0.604-0.432c0.253-0.878,1.061-1.607,2.022-1.475c0.81,0.111,1.181,0.655,1.476,1.288
		c-0.312,0.076-0.618,0.192-0.906,0.351c-0.21,0.116-0.067,0.449,0.163,0.385c0.367-0.102,0.728-0.128,1.086-0.122
		c0.114,0.069,0.259,0.066,0.384,0.009c0.474,0.052,0.943,0.181,1.41,0.361c0.375,0.145,0.579-0.427,0.264-0.626
		c-0.345-0.219-0.716-0.351-1.097-0.413c0.471-1.257,1.719-2.166,3.082-1.962c-0.126,0.345,0.145,0.844,0.568,0.682
		c0.19-0.073,0.357-0.173,0.501-0.294c0.805,0.508,1.275,1.386,1.497,2.348c0.093,0.403,0.667,0.287,0.691-0.093
		c0.014-0.228,0.001-0.454-0.035-0.675c0.569-0.49,1.52-0.575,1.998,0.094c0.2,0.279,0.313,0.669,0.277,1.012
		c-0.044,0.418-0.287,0.641-0.095,1.064c0.059,0.13,0.234,0.219,0.372,0.213c0.416-0.019,0.636-0.325,0.744-0.694
		c0.729-0.363,1.679-0.227,2.188,0.465c0.267,0.363,0.343,0.851,0.26,1.287c-0.066,0.346-0.27,0.61-0.433,0.903
		c-0.751-0.44-1.581-0.709-2.437-0.372c-0.525,0.207-1.031,0.666-1.275,1.201c-0.442-0.245-1.022-0.276-1.485-0.064
		c-0.483,0.222-0.848,0.656-1.058,1.137c-0.205,0.472-0.519,1.182-0.225,1.659c0.07,0.114,0.206,0.188,0.343,0.198
		c-0.191,0.13-0.372,0.276-0.523,0.453c-0.014-1.708-1.49-3.308-3.144-3.618c-1.801-0.337-3.443,0.674-4.191,2.257
		c-0.55-0.85-1.726-1.423-2.639-1.362c-0.327,0.022-0.628,0.115-0.91,0.242C16.562,16.493,15.967,15.961,15.433,15.794z
		 M32.132,34.338c-0.085-0.012-0.164,0.006-0.235,0.038c-0.224-0.082-0.526,0.081-0.424,0.361c0.2,0.55,0.089,1.108-0.312,1.48
		c-0.183,0.09-0.355,0.194-0.527,0.3c-0.219,0.065-0.456,0.095-0.672,0.05c-0.404-0.085-0.666-0.349-1.11-0.197
		c-0.28,0.096-0.513,0.348-0.503,0.661c0.008,0.245,0.094,0.438,0.223,0.596c-0.029,0.028-0.061,0.054-0.083,0.09
		c-0.665,1.063-0.514,2.611,0.018,3.747c-1.594,0.594-3.026,1.297-4.774,1.409c-1.293,0.083-2.516-0.253-3.766-0.399
		c0.448-1.09,0.652-2.65-0.266-3.451c-0.007-0.006-0.015-0.005-0.022-0.011c0.007-0.102-0.031-0.205-0.134-0.263
		c-2.195-1.219-4.412-2.318-6.66-3.432c-2.799-1.387-5.442-3.647-4.044-7.033c0.106-0.084,0.16-0.224,0.061-0.355
		c-0.018-0.024-0.032-0.05-0.05-0.074c-0.019-0.031-0.032-0.066-0.059-0.089c-0.46-0.705-0.612-1.63-0.225-2.406
		c0.455-0.913,1.297-1.14,2.215-1.338c0.301-0.065,0.285-0.519,0-0.593c-0.007-0.002-0.014-0.001-0.021-0.003
		c-0.155-1.116,0.341-2.294,1.389-2.812c0.861-0.425,1.805-0.282,2.61,0.149c-0.247,0.307-0.449,0.648-0.584,0.958
		c-0.282,0.647,0.541,1.153,0.956,0.559c0.221-0.317,0.506-0.62,0.813-0.856c0.324-0.248,0.691-0.403,0.904-0.768
		c0.159-0.272,0.031-0.749-0.326-0.8c-0.246-0.036-0.482,0.003-0.705,0.086c0.042-0.528,0.257-1.045,0.605-1.441
		c0.161,0.011,0.321-0.056,0.42-0.231c0.031-0.055,0.039-0.114,0.06-0.171c0.287-0.182,0.613-0.302,0.975-0.313
		c1.235-0.036,1.637,0.867,2.269,1.715c0.13,0.174,0.485,0.205,0.53-0.069c0.025-0.152,0.015-0.299-0.002-0.445
		c0.084-0.02,0.16-0.07,0.209-0.162c0.639-1.198,2.07-2.105,3.47-1.799c1.492,0.326,2.068,1.519,2.407,2.833
		c-0.511-0.091-1.056-0.034-1.572,0.191c-0.361,0.157-0.102,0.784,0.271,0.643c0.833-0.316,1.716-0.055,2.32,0.588
		c0.268,0.285,0.787-0.095,0.552-0.426c-0.136-0.191-0.297-0.345-0.467-0.483c0.072-0.02,0.142-0.06,0.197-0.135
		c0.637-0.879,2.115-1.024,2.832-0.158c0.32,0.386,0.406,0.922,0.312,1.407c-0.108,0.558-0.475,0.835-0.806,1.252
		c-0.273,0.344-0.03,0.879,0.445,0.764c0.426-0.103,0.746-0.352,0.973-0.682c0.651-0.005,1.315,0.248,1.579,0.881
		c0.154,0.37,0.084,0.776-0.152,1.101c-0.088,0.121-0.183,0.199-0.281,0.264c-0.087-0.002-0.172-0.015-0.26-0.01
		c-0.179,0.011-0.263,0.125-0.289,0.25c-0.051,0.018-0.101,0.034-0.155,0.056c-0.323,0.13-0.387,0.517-0.094,0.723
		c0.413,0.291,0.943,0.168,1.365-0.098c0.716,0.406,1.236,1.184,1.077,2.03c-0.194,1.04-1.035,1.299-1.796,1.819
		c-0.174,0.119-0.251,0.325-0.229,0.514c-0.255,0.128-0.23,0.539,0.115,0.562c1.086,0.07,2.118,1.256,1.683,2.356
		C34.023,34.171,33.008,34.462,32.132,34.338z M43.804,26.999c-0.141,0.224,0.009,0.568,0.326,0.516
		c1.425,2.656-1.99,5.082-4.008,6.104c-1.846,0.935-3.851,1.159-5.836,1.598c-0.619,0.137-1.249,0.296-1.861,0.495
		c-0.009-0.154-0.016-0.308-0.051-0.457c1.246,0.294,2.653-0.618,2.984-1.856c0.304-1.136-0.306-2.219-1.246-2.755
		c1.04-0.455,1.775-1.789,1.723-2.859c-0.054-1.105-0.749-2.001-1.684-2.439c0.331-0.522,0.473-1.17,0.299-1.769
		c-0.303-1.043-1.314-1.5-2.321-1.488c0.251-0.947,0.042-2.111-0.541-2.728c-0.782-0.827-2.009-0.92-2.979-0.46
		c0.36-0.418,0.368-1.108,0.685-1.581c0.254-0.379,0.836-0.656,1.231-0.429c0.013,0.223,0.073,0.447,0.219,0.662
		c0.214,0.312,0.861,0.247,0.803-0.217c-0.113-0.898,0.383-1.586,1.352-1.581c0.68,0.004,1.3,0.287,1.888,0.609
		c-0.019,0.105-0.047,0.208-0.046,0.319c0.001,0.208,0.302,0.375,0.45,0.186c0.062-0.08,0.123-0.16,0.183-0.24
		c0.169-0.013,0.298-0.174,0.251-0.328c0.47-0.606,0.969-1.122,1.871-1.131c1.124-0.01,2.057,0.961,2.331,1.989
		c0.063,0.237,0.303,0.335,0.517,0.309c0.077,0.1,0.199,0.158,0.353,0.102c1.439-0.513,3.032-0.647,3.913,0.927
		c0.702,1.254,0.102,2.872-1.006,3.68c-0.164-0.007-0.324,0.008-0.483,0.036c-0.173-0.387-0.388-0.754-0.655-1.105
		c-0.346-0.456-1.281-0.219-1.028,0.433c0.228,0.588,0.403,1.225,0.465,1.854c0.059,0.607-0.153,1.259,0.067,1.83
		c0.239,0.621,0.995,0.737,1.382,0.181c0.398-0.574,0.272-1.378,0.13-2.05c0.639,0.03,1.217,0.178,1.598,0.881
		c0.463,0.853,0.077,1.878-0.68,2.392c-0.012-0.011-0.02-0.023-0.031-0.034C44.099,26.344,43.596,26.677,43.804,26.999z"/>
</g>
<g>
</g>
<g>
</g>
<g>
</g>
<g>
</g>
<g>
</g>
<g>
</g>
<g>
</g>
<g>
</g>
<g>
</g>
<g>
</g>
<g>
</g>
<g>
</g>
<g>
</g>
<g>
</g>
<g>
</g>
</svg>
