<?xml version="1.0" encoding="iso-8859-1"?>
<!-- Generator: Adobe Illustrator 16.0.0, SVG Export Plug-In . SVG Version: 6.00 Build 0)  -->
<!DOCTYPE svg PUBLIC "-//W3C//DTD SVG 1.1//EN" "http://www.w3.org/Graphics/SVG/1.1/DTD/svg11.dtd">
<svg version="1.1" id="Capa_1" xmlns="http://www.w3.org/2000/svg" xmlns:xlink="http://www.w3.org/1999/xlink" x="0px" y="0px"
	 width="434.403px" height="434.403px" viewBox="0 0 434.403 434.403" style="enable-background:new 0 0 434.403 434.403;"
	 xml:space="preserve">
<g>
	<g id="Layer_3_12_">
		<g>
			<path d="M341.333,247.744c0.74,0.354,18.131,8.918,17.189,28.77c-0.262,5.518,4,10.201,9.516,10.462
				c0.162,0.009,0.322,0.012,0.482,0.012c5.305,0,9.727-4.171,9.98-9.526c1.254-26.49-17.408-42.512-28.633-47.803
				c-4.988-2.352-10.908-0.212-13.273,4.765C334.231,239.4,336.362,245.364,341.333,247.744z"/>
			<path d="M133.132,281.709c-3.821-3.988-10.15-4.121-14.139-0.301c-19.121,18.322-16.632,42.798-12.147,54.37
				c1.533,3.957,5.305,6.373,9.307,6.373c1.198,0,2.416-0.217,3.602-0.673c5.146-1.979,7.71-7.771,5.743-12.921
				c-0.294-0.768-7.017-18.958,7.334-32.709C136.818,292.027,136.953,285.697,133.132,281.709z"/>
			<path d="M424.352,1.575c-2.873-1.836-6.484-2.083-9.582-0.654C278.508,63.86,106.243,70.657,38.504,70.658
				c-14.302,0-22.583-0.327-22.665-0.33c-2.709-0.114-5.366,0.895-7.33,2.78c-1.963,1.886-3.073,4.49-3.073,7.212v50.329
				c0,5.366,4.234,9.775,9.596,9.992c0.35,0.014,8.728,0.346,23.473,0.346c0.004,0,0,0,0.005,0
				c35.104,0,97.766-1.809,169.261-12.063c0.586,3.135,1.776,8.553,3.931,15.082c-21.248,50.674-60.279,73.111-60.279,73.111
				c-39.679,6.899-74.103,35.509-86.327,76.662c-8.323,28.019-5.237,57.603,8.689,83.301c13.928,25.698,37.028,44.435,65.048,52.759
				c10.333,3.069,20.864,4.565,31.295,4.565c29.118,0,57.442-11.656,78.428-33.254c4.343-4.472,4.239-11.615-0.229-15.958
				c-4.471-4.343-11.614-4.241-15.959,0.229c-22.627,23.29-56.006,32.021-87.105,22.78c-22.24-6.607-40.576-21.479-51.631-41.876
				c-11.055-20.398-13.505-43.879-6.897-66.119c13.639-45.91,62.086-72.164,107.997-58.525c5.971,1.773,12.258-1.629,14.032-7.604
				c1.774-5.976-1.63-12.257-7.604-14.032c-5.164-1.534-10.353-2.66-15.534-3.411c11.632-10.523,25.669-26.381,37.174-48.71
				c4.861,7.716,11.169,15.197,19.324,21.132c3.633,2.643,7.455,4.854,11.451,6.645c-1.031,0.704-2.057,1.417-3.062,2.157
				c-19.341,14.213-33.186,33.917-40.037,56.978c-8.323,28.019-5.237,57.603,8.689,83.301c13.928,25.699,37.027,44.436,65.047,52.76
				c10.18,3.022,20.678,4.557,31.203,4.557c23.096,0,46.117-7.57,64.822-21.313c19.34-14.214,33.186-33.916,40.037-56.978
				c17.182-57.841-15.896-118.877-73.738-136.061c-10.178-3.023-20.676-4.557-31.203-4.557c-10.654,0-21.287,1.63-31.492,4.714
				c-11.555,0.569-21.391-2.174-29.871-8.318c-18.378-13.314-24.783-38.914-26.402-47.042
				c63.92-10.386,133.311-27.721,195.594-56.489c3.541-1.635,5.807-5.179,5.807-9.079V9.999
				C428.963,6.589,427.225,3.413,424.352,1.575z M315.329,199.112c8.35,0,16.688,1.219,24.777,3.623
				c45.91,13.639,72.166,62.085,58.527,107.996c-10.871,36.593-45.094,62.147-83.223,62.147c-8.35,0-16.684-1.218-24.775-3.622
				c-22.238-6.605-40.575-21.479-51.63-41.876c-11.056-20.396-13.505-43.879-6.897-66.119
				C242.978,224.669,277.2,199.112,315.329,199.112z M408.963,53.889c-135.314,60.493-303.681,67.097-370.458,67.097
				c-5.18,0-9.57-0.042-13.068-0.098V90.562c3.528,0.053,7.908,0.094,13.068,0.094c66.742-0.001,233.118-6.52,370.458-65.27V53.889z
				"/>
		</g>
	</g>
</g>
<g>
</g>
<g>
</g>
<g>
</g>
<g>
</g>
<g>
</g>
<g>
</g>
<g>
</g>
<g>
</g>
<g>
</g>
<g>
</g>
<g>
</g>
<g>
</g>
<g>
</g>
<g>
</g>
<g>
</g>
</svg>
