<?xml version="1.0" encoding="iso-8859-1"?>
<!-- Generator: Adobe Illustrator 18.0.0, SVG Export Plug-In . SVG Version: 6.00 Build 0)  -->
<!DOCTYPE svg PUBLIC "-//W3C//DTD SVG 1.1//EN" "http://www.w3.org/Graphics/SVG/1.1/DTD/svg11.dtd">
<svg version="1.1" id="Capa_1" xmlns="http://www.w3.org/2000/svg" xmlns:xlink="http://www.w3.org/1999/xlink" x="0px" y="0px"
	 viewBox="0 0 352.188 352.188" style="enable-background:new 0 0 352.188 352.188;" xml:space="preserve">
<g>
	<g>
		<path d="M248.821,31.378C229.483,11.144,203.746,0,176.352,0h-0.516C119.419,0,73.52,47.872,73.52,106.715
			c0.001,24.976,8.444,49.268,23.775,68.4c0.038,0.048,0.078,0.096,0.117,0.143c10.421,12.371,38.29,48.332,42.058,65.934
			c0.74,3.459,3.797,5.931,7.334,5.931h4.231v45.786c-12.259,3.991-20.849,15.41-20.849,28.881c0,16.761,13.637,30.398,30.4,30.399
			c5.514-0.001,10.85-1.483,15.507-4.252c4.658,2.768,9.994,4.251,15.506,4.251h0.004c16.762,0,30.398-13.637,30.398-30.398
			c0-13.471-8.588-24.891-20.848-28.881v-45.786h4.231c3.539,0,6.594-2.472,7.334-5.931c3.764-17.584,31.635-53.557,42.057-65.935
			c0.041-0.046,0.08-0.094,0.117-0.142c15.332-19.134,23.775-43.425,23.775-68.4C278.668,78.274,268.069,51.519,248.821,31.378z
			 M192.991,306.457c7.857,0.697,14.012,7.432,14.012,15.332c0,8.491-6.906,15.398-15.4,15.398H191.6
			c-3.871,0-7.574-1.446-10.424-4.072c-2.873-2.645-7.293-2.646-10.164,0.001c-2.85,2.625-6.554,4.071-10.427,4.072
			c-8.491-0.001-15.399-6.909-15.399-15.399c0-7.9,6.154-14.635,14.012-15.332c3.87-0.344,6.837-3.586,6.837-7.471v-51.864h20.12
			v51.864C186.155,302.871,189.121,306.113,192.991,306.457z M243.243,165.666c-4.025,4.785-34.68,41.693-43.473,66.456h-47.351
			c-8.791-24.76-39.439-61.662-43.473-66.455c-13.172-16.472-20.426-37.404-20.426-58.952C88.52,56.144,127.69,15,175.836,15h0.516
			c23.26,0,45.145,9.497,61.623,26.741c16.568,17.337,25.693,40.412,25.693,64.974C263.668,128.263,256.417,149.194,243.243,165.666
			z"/>
		<g>
			<g>
				<g>
					<path d="M203.934,47.744c-1.969,0-3.9-0.8-5.299-2.2c-1.4-1.399-2.201-3.33-2.201-5.3c0-1.979,0.801-3.91,2.201-5.31
						c1.398-1.391,3.33-2.19,5.299-2.19c1.98,0,3.91,0.8,5.311,2.19c1.391,1.399,2.189,3.33,2.189,5.31c0,1.97-0.799,3.9-2.189,5.3
						C207.844,46.944,205.905,47.744,203.934,47.744z"/>
				</g>
				<g>
					<path d="M226.975,70.784c-1.971,0-3.9-0.8-5.301-2.2c-1.4-1.399-2.199-3.33-2.199-5.31c0-1.971,0.799-3.9,2.199-5.3
						c1.4-1.391,3.33-2.2,5.301-2.2c1.979,0,3.91,0.81,5.309,2.2c1.391,1.399,2.191,3.329,2.191,5.3c0,1.979-0.801,3.91-2.191,5.31
						C230.885,69.984,228.954,70.784,226.975,70.784z"/>
				</g>
			</g>
			<g>
				<path d="M197.655,77.064c-1.98,0-3.91-0.8-5.31-2.2c-1.391-1.39-2.19-3.32-2.19-5.3c0-1.971,0.799-3.91,2.19-5.3
					c1.4-1.4,3.33-2.2,5.31-2.2c1.969,0,3.9,0.8,5.299,2.2c1.4,1.39,2.201,3.329,2.201,5.3c0,1.979-0.801,3.91-2.201,5.3
					C201.555,76.265,199.623,77.064,197.655,77.064z"/>
			</g>
		</g>
	</g>
</g>
<g>
</g>
<g>
</g>
<g>
</g>
<g>
</g>
<g>
</g>
<g>
</g>
<g>
</g>
<g>
</g>
<g>
</g>
<g>
</g>
<g>
</g>
<g>
</g>
<g>
</g>
<g>
</g>
<g>
</g>
</svg>
